<?xml version="1.0" encoding="utf-8"?>
<!-- Generator: Adobe Illustrator 25.0.0, SVG Export Plug-In . SVG Version: 6.00 Build 0)  -->
<svg version="1.1" id="Calque_1" xmlns="http://www.w3.org/2000/svg" xmlns:xlink="http://www.w3.org/1999/xlink" x="0px" y="0px"
	 viewBox="0 0 16 16" style="enable-background:new 0 0 16 16;" xml:space="preserve">
<style type="text/css">
	.st0{fill:#010202;}
	.st1{fill:#FFFFFF;}
</style>
<path class="st0" d="M15.1,16H0.9C0.4,16,0,15.6,0,15.1V0.9C0,0.4,0.4,0,0.9,0h14.2C15.6,0,16,0.4,16,0.9v14.2
	C16,15.6,15.6,16,15.1,16z"/>
<g>
	<path class="st1" d="M7.85,10.6c0,0.44-0.05,0.85-0.16,1.24c-0.11,0.39-0.27,0.73-0.49,1.04c-0.22,0.31-0.49,0.58-0.82,0.8
		s-0.71,0.4-1.15,0.52c-0.25,0.07-0.52,0.12-0.82,0.15c-0.29,0.03-0.61,0.04-0.95,0.04h-1.7V6.87h1.72c0.34,0,0.66,0.01,0.95,0.04
		c0.29,0.03,0.56,0.08,0.82,0.15c0.44,0.12,0.82,0.3,1.15,0.52C6.71,7.8,6.99,8.06,7.2,8.36C7.42,8.66,7.58,9,7.69,9.38
		C7.79,9.76,7.85,10.16,7.85,10.6z M6.93,10.6c0-0.72-0.16-1.31-0.48-1.76C6.14,8.39,5.68,8.07,5.08,7.88
		C4.85,7.81,4.6,7.76,4.32,7.73c-0.28-0.03-0.6-0.04-0.95-0.04h-0.7v5.87h0.7c0.35,0,0.67-0.01,0.95-0.04
		c0.28-0.03,0.54-0.07,0.76-0.15c0.6-0.19,1.05-0.52,1.37-0.98C6.77,11.93,6.93,11.33,6.93,10.6z"/>
	<path class="st1" d="M10.39,13.57h3.86v0.83H9.48V6.87h4.57v0.83h-3.65v2.43h3.25v0.83h-3.25V13.57z"/>
</g>
</svg>
